<svg width="469" height="160" viewBox="0 0 469 160" fill="none" xmlns="http://www.w3.org/2000/svg">
<path d="M22.3828 95.7344V139.445C22.3568 144.445 20.9245 148.299 18.0859 151.008C15.2474 153.716 11.2891 155.07 6.21094 155.07C4.02344 155.07 1.95312 154.849 0 154.406V144.445C1.51042 144.68 2.7474 144.797 3.71094 144.797C7.35677 144.797 9.17969 142.987 9.17969 139.367V95.7344H22.3828Z" fill="black"/>
<path d="M51.9922 126.125C51.9922 125.005 51.4062 124.107 50.2344 123.43C49.0625 122.753 46.8359 122.049 43.5547 121.32C40.2734 120.591 37.5651 119.641 35.4297 118.469C33.2943 117.271 31.6667 115.826 30.5469 114.133C29.4271 112.44 28.8672 110.5 28.8672 108.312C28.8672 104.432 30.4688 101.242 33.6719 98.7422C36.875 96.2161 41.0677 94.9531 46.25 94.9531C51.8229 94.9531 56.3021 96.2161 59.6875 98.7422C63.0729 101.268 64.7656 104.589 64.7656 108.703H51.5625C51.5625 105.318 49.7786 103.625 46.2109 103.625C44.8307 103.625 43.6719 104.016 42.7344 104.797C41.7969 105.552 41.3281 106.503 41.3281 107.648C41.3281 108.82 41.901 109.771 43.0469 110.5C44.1927 111.229 46.0156 111.828 48.5156 112.297C51.0417 112.766 53.2552 113.326 55.1562 113.977C61.5104 116.164 64.6875 120.083 64.6875 125.734C64.6875 129.589 62.9688 132.727 59.5312 135.148C56.1198 137.57 51.6927 138.781 46.25 138.781C42.6302 138.781 39.401 138.13 36.5625 136.828C33.724 135.526 31.5104 133.755 29.9219 131.516C28.3333 129.276 27.5391 126.919 27.5391 124.445H39.8438C39.8958 126.398 40.5469 127.831 41.7969 128.742C43.0469 129.628 44.6484 130.07 46.6016 130.07C48.3984 130.07 49.7396 129.706 50.625 128.977C51.5365 128.247 51.9922 127.297 51.9922 126.125Z" fill="black"/>
<path d="M123.562 116.477C123.562 112.258 124.383 108.508 126.023 105.227C127.664 101.919 130.021 99.3802 133.094 97.6094C136.167 95.8385 139.773 94.9531 143.914 94.9531C150.242 94.9531 155.229 96.9193 158.875 100.852C162.521 104.758 164.344 110.083 164.344 116.828V117.297C164.344 123.885 162.508 129.12 158.836 133C155.19 136.854 150.242 138.781 143.992 138.781C137.977 138.781 133.146 136.984 129.5 133.391C125.854 129.771 123.888 124.875 123.602 118.703L123.562 116.477ZM136.727 117.297C136.727 121.203 137.339 124.068 138.562 125.891C139.786 127.714 141.596 128.625 143.992 128.625C148.68 128.625 151.076 125.018 151.18 117.805V116.477C151.18 108.898 148.758 105.109 143.914 105.109C139.513 105.109 137.13 108.378 136.766 114.914L136.727 117.297Z" fill="black"/>
<path d="M184.031 138H170.828V78H184.031V138Z" fill="black"/>
<path d="M206.062 138H192.859V95.7344H206.062V138Z" fill="black"/>
<path d="M232.078 128.625C233.927 128.625 235.359 128.13 236.375 127.141C237.391 126.125 237.885 124.719 237.859 122.922H250.203C250.203 127.557 248.536 131.359 245.203 134.328C241.896 137.297 237.625 138.781 232.391 138.781C226.245 138.781 221.401 136.854 217.859 133C214.318 129.146 212.547 123.807 212.547 116.984V116.438C212.547 112.167 213.328 108.404 214.891 105.148C216.479 101.867 218.758 99.3542 221.727 97.6094C224.695 95.8385 228.211 94.9531 232.273 94.9531C237.768 94.9531 242.13 96.4766 245.359 99.5234C248.589 102.57 250.203 106.698 250.203 111.906H237.859C237.859 109.719 237.326 108.039 236.258 106.867C235.19 105.695 233.758 105.109 231.961 105.109C228.549 105.109 226.557 107.284 225.984 111.633C225.802 113.013 225.711 114.914 225.711 117.336C225.711 121.581 226.219 124.523 227.234 126.164C228.25 127.805 229.865 128.625 232.078 128.625Z" fill="black"/>
<path d="M272.664 119.562L279.695 95.7344H293.797L276.57 145.07L275.828 146.867C273.38 152.336 269.057 155.07 262.859 155.07C261.141 155.07 259.331 154.81 257.43 154.289V144.875H259.148C260.997 144.875 262.404 144.602 263.367 144.055C264.357 143.534 265.086 142.583 265.555 141.203L266.609 138.391L251.922 95.7344H265.984L272.664 119.562Z" fill="black"/>
<path d="M73.5312 118.118C73.5312 105.902 83.4337 96 95.6489 96H115.555V119.224C115.555 130.828 106.147 140.235 94.543 140.235V140.235C82.9385 140.235 73.5312 130.828 73.5312 119.224V118.118Z" fill="#29CF42"/>
<path d="M123.531 82C145.623 82 163.531 64.9868 163.531 44C163.531 23.0132 145.623 6 123.531 6V44V82Z" fill="#29CF42"/>
<circle cx="94.5312" cy="21" r="21" fill="#FF6259"/>
<circle cx="15.5312" cy="84" r="7" fill="black"/>
<circle cx="199.531" cy="85" r="7" fill="black"/>
<circle cx="94.5312" cy="69" r="21" fill="#FFD600"/>
<path d="M345.875 124.805C346.422 121.706 344.898 119.336 341.305 117.695L333.766 114.688C325.016 110.781 320.862 105.404 321.305 98.5547C321.487 95.3776 322.529 92.5651 324.43 90.1172C326.331 87.6693 329 85.7552 332.438 84.375C335.875 82.9688 339.586 82.2917 343.57 82.3438C349.065 82.4479 353.505 84.0885 356.891 87.2656C360.276 90.4167 361.943 94.6484 361.891 99.9609H350.484C350.615 97.3828 350.042 95.3776 348.766 93.9453C347.516 92.513 345.562 91.7708 342.906 91.7188C340.302 91.6667 338.036 92.2656 336.109 93.5156C334.182 94.7396 333.036 96.4323 332.672 98.5938C332.177 101.432 334.078 103.685 338.375 105.352L343.531 107.305L346.5 108.672C354.182 112.474 357.776 117.812 357.281 124.688C357.047 128.047 355.966 130.951 354.039 133.398C352.138 135.82 349.534 137.682 346.227 138.984C342.945 140.286 339.326 140.898 335.367 140.82C331.331 140.742 327.737 139.896 324.586 138.281C321.435 136.667 319.039 134.388 317.398 131.445C315.862 128.711 315.146 125.586 315.25 122.07L326.695 122.109C326.331 128.281 329.365 131.419 335.797 131.523C338.583 131.523 340.875 130.911 342.672 129.688C344.469 128.464 345.536 126.836 345.875 124.805ZM362.711 140L372.594 83.125L388.922 83.1641C392.75 83.2422 396.188 84.1146 399.234 85.7812C402.307 87.4219 404.794 89.7917 406.695 92.8906C408.596 95.9896 409.742 99.4792 410.133 103.359C410.341 105.625 410.315 107.943 410.055 110.312L409.781 112.383C408.635 120.716 405.354 127.409 399.938 132.461C394.547 137.487 387.997 140 380.289 140H362.711ZM382.398 92.6172L375.797 130.586L380.562 130.625C385.823 130.625 390.042 128.698 393.219 124.844C396.422 120.99 398.258 115.169 398.727 107.383L398.805 106.133C398.883 101.836 398.062 98.5417 396.344 96.25C394.625 93.9583 392.06 92.7604 388.648 92.6562L382.398 92.6172ZM435.25 117.305L427.75 124.258L425.016 140H413.57L423.453 83.125H434.898L430.523 108.203L436.344 101.641L453.453 83.125H468.375L443.805 108.984L458.453 140H445.406L435.25 117.305Z" fill="black"/>
</svg>
